<svg width="10" height="10" viewBox="0 0 10 10" fill="none" xmlns="http://www.w3.org/2000/svg">
<path d="M5 10C2.2385 10 0 7.7615 0 5C0 2.2385 2.2385 0 5 0C7.7615 0 10 2.2385 10 5C10 7.7615 7.7615 10 5 10ZM2.5065 8.128C3.21427 8.69385 4.09384 9.00144 5 9C5.985 9 6.8865 8.644 7.5835 8.054C7.25786 7.71987 6.86853 7.45444 6.43852 7.2734C6.00851 7.09236 5.54656 6.9994 5.08 7C4.59629 6.99944 4.11775 7.09943 3.67473 7.29361C3.23171 7.48779 2.83389 7.77193 2.5065 8.128ZM1.808 7.41C2.22823 6.96404 2.73534 6.60886 3.29807 6.36636C3.8608 6.12386 4.46724 5.99918 5.08 6C5.67083 5.99923 6.25598 6.11518 6.80187 6.34119C7.34776 6.5672 7.84363 6.89882 8.261 7.317C8.68904 6.71456 8.94181 6.00532 8.99128 5.26796C9.04075 4.53059 8.88498 3.79394 8.54124 3.13973C8.19751 2.48551 7.67926 1.93931 7.04398 1.56172C6.40871 1.18413 5.68124 0.989919 4.9423 1.00063C4.20336 1.01133 3.48183 1.22654 2.85776 1.62238C2.23369 2.01821 1.73148 2.5792 1.40685 3.2431C1.08221 3.907 0.947847 4.64786 1.01866 5.38347C1.08947 6.11909 1.36269 6.82022 1.808 7.41ZM5 5.5C4.46957 5.5 3.96086 5.28929 3.58579 4.91421C3.21071 4.53914 3 4.03043 3 3.5C3 2.96957 3.21071 2.46086 3.58579 2.08579C3.96086 1.71071 4.46957 1.5 5 1.5C5.53043 1.5 6.03914 1.71071 6.41421 2.08579C6.78929 2.46086 7 2.96957 7 3.5C7 4.03043 6.78929 4.53914 6.41421 4.91421C6.03914 5.28929 5.53043 5.5 5 5.5ZM5 4.5C5.26522 4.5 5.51957 4.39464 5.70711 4.20711C5.89464 4.01957 6 3.76522 6 3.5C6 3.23478 5.89464 2.98043 5.70711 2.79289C5.51957 2.60536 5.26522 2.5 5 2.5C4.73478 2.5 4.48043 2.60536 4.29289 2.79289C4.10536 2.98043 4 3.23478 4 3.5C4 3.76522 4.10536 4.01957 4.29289 4.20711C4.48043 4.39464 4.73478 4.5 5 4.5Z" fill="white"/>
</svg>
