<svg width="18" height="15" viewBox="0 0 18 15" fill="none" xmlns="http://www.w3.org/2000/svg">
<path d="M16.4009 8.68421H14.7608V3.34579L8.2595 8.95105L1.64009 3.32842V12.6316H9.84055V14.2105H0.820046C0.602556 14.2105 0.393974 14.1274 0.240186 13.9793C0.0863974 13.8312 0 13.6304 0 13.4211V0.789474C0 0.580092 0.0863974 0.379286 0.240186 0.231231C0.393974 0.0831764 0.602556 0 0.820046 0H15.5809C15.7984 0 16.0069 0.0831764 16.1607 0.231231C16.3145 0.379286 16.4009 0.580092 16.4009 0.789474V8.68421ZM2.05913 1.57895L8.25048 6.83842L14.3524 1.57895H2.05913ZM13.9408 15L11.0411 12.2084L12.2015 11.0921L13.9408 12.7674L16.8405 9.97579L18 11.0921L13.9408 15Z" fill="#A1DA8D"/>
</svg>
