<svg width="14" height="12" viewBox="0 0 14 12" fill="none" xmlns="http://www.w3.org/2000/svg">
<path d="M7.2898 1.33333H13.3C13.4857 1.33333 13.6637 1.40357 13.795 1.5286C13.9263 1.65362 14 1.82319 14 2V11.3333C14 11.5101 13.9263 11.6797 13.795 11.8047C13.6637 11.9298 13.4857 12 13.3 12H0.7C0.514348 12 0.336301 11.9298 0.205025 11.8047C0.0737498 11.6797 0 11.5101 0 11.3333V0.666667C0 0.489856 0.0737498 0.320286 0.205025 0.195262C0.336301 0.0702379 0.514348 0 0.7 0H5.8898L7.2898 1.33333ZM12.6 5.33333H1.4V10.6667H12.6V5.33333ZM12.6 4V2.66667H6.7102L5.3102 1.33333H1.4V4H12.6Z" fill="#195273"/>
</svg>
