<svg width="13" height="14" viewBox="0 0 13 14" fill="none" xmlns="http://www.w3.org/2000/svg">
<path d="M10.8333 12.0556H11.5556V3.26467L10.2353 1.94444H9.38889V4.83333H2.88889V1.94444H1.44444V12.0556H2.16667V7H10.8333V12.0556ZM0.722222 0.5H10.8333L12.7884 2.45506C12.9238 2.59047 13 2.77414 13 2.96567V12.7778C13 12.9693 12.9239 13.153 12.7885 13.2885C12.653 13.4239 12.4693 13.5 12.2778 13.5H0.722222C0.530677 13.5 0.346977 13.4239 0.211534 13.2885C0.076091 13.153 0 12.9693 0 12.7778V1.22222C0 1.03068 0.076091 0.846977 0.211534 0.711534C0.346977 0.576091 0.530677 0.5 0.722222 0.5ZM3.61111 8.44444V12.0556H9.38889V8.44444H3.61111Z" fill="white"/>
</svg>
