<svg width="12" height="14" viewBox="0 0 12 14" fill="none" xmlns="http://www.w3.org/2000/svg">
<path d="M11.3333 14H0.666667C0.489856 14 0.320286 13.9263 0.195262 13.795C0.0702379 13.6637 0 13.4857 0 13.3V0.7C0 0.514348 0.0702379 0.336301 0.195262 0.205025C0.320286 0.0737498 0.489856 0 0.666667 0H11.3333C11.5101 0 11.6797 0.0737498 11.8047 0.205025C11.9298 0.336301 12 0.514348 12 0.7V13.3C12 13.4857 11.9298 13.6637 11.8047 13.795C11.6797 13.9263 11.5101 14 11.3333 14ZM10.6667 12.6V1.4H1.33333V12.6H10.6667ZM3.33333 3.5H8.66667V4.9H3.33333V3.5ZM3.33333 6.3H8.66667V7.7H3.33333V6.3ZM3.33333 9.1H6.66667V10.5H3.33333V9.1Z" fill="#195273"/>
</svg>
