<svg width="18" height="14" viewBox="0 0 18 14" fill="none" xmlns="http://www.w3.org/2000/svg">
<path d="M18 13.2277C17.9985 13.4319 17.9125 13.6274 17.7607 13.7719C17.6088 13.9165 17.4032 13.9984 17.1884 14H2.448C2.23267 13.9998 2.02622 13.9183 1.87404 13.7735C1.72185 13.6287 1.63636 13.4324 1.63636 13.2277V12.4444H16.3636V3.34444L9.81818 8.94444L1.63636 1.94444V0.777778C1.63636 0.571498 1.72256 0.373667 1.876 0.227806C2.02944 0.0819442 2.23755 0 2.45455 0H17.1818C17.3988 0 17.6069 0.0819442 17.7604 0.227806C17.9138 0.373667 18 0.571498 18 0.777778V13.2277ZM3.62782 1.55556L9.81818 6.85222L16.0085 1.55556H3.62782ZM0 9.33333H6.54545V10.8889H0V9.33333ZM0 5.44444H4.09091V7H0V5.44444Z" fill="#50BAF5"/>
</svg>
